<?xml version="1.0" encoding="utf-8"?>
<!-- Generator: Adobe Illustrator 15.0.0, SVG Export Plug-In . SVG Version: 6.00 Build 0)  -->
<!DOCTYPE svg PUBLIC "-//W3C//DTD SVG 1.1//EN" "http://www.w3.org/Graphics/SVG/1.1/DTD/svg11.dtd">
<svg version="1.1" id="Capa_1" xmlns="http://www.w3.org/2000/svg" xmlns:xlink="http://www.w3.org/1999/xlink" x="0px" y="0px"
	 width="375px" height="667px" viewBox="0 0 375 667" enable-background="new 0 0 375 667" xml:space="preserve">
<g>
	<path fill="#FFFFFF" d="M187.499,146C84.112,146,0,230.112,0,333.499c0,103.388,84.112,187.499,187.499,187.499
		c103.388,0,187.499-84.111,187.499-187.499C374.998,230.112,290.889,146,187.499,146z M188.13,380.328
		c5.118,5.318,13.579,5.484,18.897,0.365c5.32-5.119,5.483-13.58,0.365-18.898l-20.621-21.434l37.197-58.376l90.935,112.519H61.95
		l67.282-75.399L188.13,380.328z M187.499,172.731c88.647,0,160.768,72.12,160.768,160.768c0,17.424-2.796,34.202-7.946,49.926
		L233.076,250.728c-2.703-3.345-6.861-5.174-11.145-4.944c-4.295,0.243-8.211,2.536-10.521,6.163l-43.705,68.593l-29.212-30.363
		c-2.579-2.681-6.095-4.16-9.882-4.097c-3.721,0.069-7.245,1.688-9.723,4.464l-83.855,93.975
		c-5.38-16.037-8.301-33.191-8.301-51.019C26.731,244.852,98.852,172.731,187.499,172.731z M187.499,494.269
		c-56.298,0-105.923-29.095-134.65-73.032h269.3C293.424,465.174,243.799,494.269,187.499,494.269z"/>
</g>
</svg>
